<svg width="1132.0623535156249px" height="122px" xmlns="http://www.w3.org/2000/svg" viewBox="-316.03117675781243 14 1132.0623535156249 122" style="background:#596886" preserveAspectRatio="xMidYMid"><defs><filter id="editing-hover" x="-100%" y="-100%" width="300%" height="300%"><feFlood flood-color="#052b4a" result="flood"></feFlood><feComposite operator="in" in2="SourceAlpha" in="flood" result="shadow"></feComposite><feOffset dx="-4" dy="-4" in="SourceGraphic" result="offset-1"></feOffset><feOffset dx="4" dy="4" in="shadow" result="offset-2"></feOffset><feMerge><feMergeNode in="offset-2"></feMergeNode><feMergeNode in="offset-1"></feMergeNode></feMerge></filter></defs><g filter="url(#editing-hover)"><g transform="translate(-159.15504395961761, 104.76000022888184)"><path d="M34.50-13.25L34.50-13.25L34.50-13.25Q36.16-12.03 36.16-9.44L36.16-9.44L36.16-9.44Q36.16-6.85 35.04-5.02L35.04-5.02L35.04-5.02Q33.92-3.20 31.74-1.79L31.74-1.79L31.74-1.79Q27.07 1.22 18.91 1.22L18.91 1.22L18.91 1.22Q10.75 1.22 6.30-3.04L6.30-3.04L6.30-3.04Q1.86-7.30 1.86-14.85L1.86-14.85L1.86-14.85Q1.86-25.54 7.42-33.66L7.42-33.66L7.42-33.66Q11.65-39.68 19.20-42.24L19.20-42.24L19.20-42.24Q23.10-43.52 26.94-43.52L26.94-43.52L26.94-43.52Q30.78-43.52 33.15-43.01L33.15-43.01L33.15-43.01Q35.52-42.50 37.31-41.47L37.31-41.47L37.31-41.47Q41.22-39.23 41.22-35.65L41.22-35.65L41.22-35.65Q41.22-32.38 38.14-29.95L38.14-29.95L38.14-29.95Q35.33-27.78 33.02-27.78L33.02-27.78L33.02-27.78Q30.72-27.78 29.76-28.10L29.76-28.10L29.76-28.10Q30.02-30.40 30.02-31.90L30.02-31.90L30.02-31.90Q30.02-33.41 29.95-34.50L29.95-34.50L29.95-34.50Q29.89-35.58 29.57-36.61L29.57-36.61L29.57-36.61Q28.93-38.98 26.98-38.98L26.98-38.98L26.98-38.98Q25.02-38.98 23.07-37.15L23.07-37.15L23.07-37.15Q21.12-35.33 19.46-32.26L19.46-32.26L19.46-32.26Q15.68-25.28 15.68-17.02L15.68-17.02L15.68-17.02Q15.68-13.06 17.92-10.78L17.92-10.78L17.92-10.78Q20.16-8.51 24.96-8.51L24.96-8.51L24.96-8.51Q28.54-8.51 31.94-10.88L31.94-10.88L31.94-10.88Q33.41-11.90 34.50-13.25ZM43.46-39.87L43.46-39.87L43.46-39.87Q46.46-43.39 51.46-43.39L51.46-43.39L51.46-43.39Q55.42-43.39 57.54-41.86L57.54-41.86L57.54-41.86Q59.65-40.26 61.06-36.35L61.06-36.35L63.74-28.74L73.41-42.18L82.05-42.18L66.37-21.38L70.40-9.98L70.40-9.98Q71.30-7.42 72.86-5.54L72.86-5.54L72.86-5.54Q74.43-3.65 75.84-3.33L75.84-3.33L75.84-3.33Q74.56-0.90 72.35 0.19L72.35 0.19L72.35 0.19Q70.14 1.28 66.91 1.28L66.91 1.28L66.91 1.28Q63.68 1.28 61.41-0.83L61.41-0.83L61.41-0.83Q59.14-2.94 57.41-7.68L57.41-7.68L55.55-12.80L45.89 0L38.02 0L52.74-20.42L48.13-33.28L48.13-33.28Q47.10-36.10 46.08-37.54L46.08-37.54L46.08-37.54Q45.06-38.98 43.46-39.87ZM126.78-13.25L126.78-13.25L126.78-13.25Q128.45-12.03 128.45-9.44L128.45-9.44L128.45-9.44Q128.45-6.85 127.33-5.02L127.33-5.02L127.33-5.02Q126.21-3.20 124.03-1.79L124.03-1.79L124.03-1.79Q119.36 1.22 111.20 1.22L111.20 1.22L111.20 1.22Q103.04 1.22 98.59-3.04L98.59-3.04L98.59-3.04Q94.14-7.30 94.14-14.85L94.14-14.85L94.14-14.85Q94.14-25.54 99.71-33.66L99.71-33.66L99.71-33.66Q103.94-39.68 111.49-42.24L111.49-42.24L111.49-42.24Q115.39-43.52 119.23-43.52L119.23-43.52L119.23-43.52Q123.07-43.52 125.44-43.01L125.44-43.01L125.44-43.01Q127.81-42.50 129.60-41.47L129.60-41.47L129.60-41.47Q133.50-39.23 133.50-35.65L133.50-35.65L133.50-35.65Q133.50-32.38 130.43-29.95L130.43-29.95L130.43-29.95Q127.62-27.78 125.31-27.78L125.31-27.78L125.31-27.78Q123.01-27.78 122.05-28.10L122.05-28.10L122.05-28.10Q122.30-30.40 122.30-31.90L122.30-31.90L122.30-31.90Q122.30-33.41 122.24-34.50L122.24-34.50L122.24-34.50Q122.18-35.58 121.86-36.61L121.86-36.61L121.86-36.61Q121.22-38.98 119.26-38.98L119.26-38.98L119.26-38.98Q117.31-38.98 115.36-37.15L115.36-37.15L115.36-37.15Q113.41-35.33 111.74-32.26L111.74-32.26L111.74-32.26Q107.97-25.28 107.97-17.02L107.97-17.02L107.97-17.02Q107.97-13.06 110.21-10.78L110.21-10.78L110.21-10.78Q112.45-8.51 117.25-8.51L117.25-8.51L117.25-8.51Q120.83-8.51 124.22-10.88L124.22-10.88L124.22-10.88Q125.70-11.90 126.78-13.25ZM136.54-1.92L136.54-1.92L136.54-1.92Q135.04-3.58 134.37-6.21L134.37-6.21L134.37-6.21Q133.70-8.83 133.70-13.12L133.70-13.12L133.70-13.12Q133.70-17.41 135.17-21.31L135.17-21.31L135.17-21.31Q136.64-25.22 139.33-28.03L139.33-28.03L139.33-28.03Q144.83-33.92 153.92-33.92L153.92-33.92L153.92-33.92Q157.18-33.92 159.55-32.83L159.55-32.83L170.50-33.92L165.76-8.96L165.76-8.96Q165.57-8.19 165.57-6.78L165.57-6.78L165.57-6.78Q165.57-5.38 166.43-4.48L166.43-4.48L166.43-4.48Q167.30-3.58 168.58-3.46L168.58-3.46L168.58-3.46Q167.94-1.28 165.60 0L165.60 0L165.60 0Q163.26 1.28 160.64 1.28L160.64 1.28L160.64 1.28Q158.02 1.28 156.26 0.29L156.26 0.29L156.26 0.29Q154.50-0.70 153.98-2.37L153.98-2.37L153.98-2.37Q152.96-0.77 150.78 0.26L150.78 0.26L150.78 0.26Q148.61 1.28 145.70 1.28L145.70 1.28L145.70 1.28Q142.78 1.28 140.42 0.51L140.42 0.51L140.42 0.51Q138.05-0.26 136.54-1.92ZM150.05-27.90L150.05-27.90L150.05-27.90Q149.31-26.75 148.67-24.80L148.67-24.80L148.67-24.80Q148.03-22.85 146.98-17.63L146.98-17.63L146.98-17.63Q145.92-12.42 145.92-8.70L145.92-8.70L145.92-8.70Q145.92-4.99 146.50-3.90L146.50-3.90L146.50-3.90Q147.07-2.82 148.10-2.82L148.10-2.82L148.10-2.82Q150.14-2.82 151.65-4.77L151.65-4.77L151.65-4.77Q153.15-6.72 153.73-10.18L153.73-10.18L157.12-28.93L157.12-28.93Q155.78-30.08 154.21-30.08L154.21-30.08L154.21-30.08Q152.64-30.08 151.71-29.57L151.71-29.57L151.71-29.57Q150.78-29.06 150.05-27.90ZM193.98-17.98L193.98-17.98L193.98-17.98Q196.29-22.08 196.29-26.24L196.29-26.24L196.29-26.24Q196.29-28.99 194.30-28.99L194.30-28.99L194.30-28.99Q192.77-28.99 191.17-26.37L191.17-26.37L191.17-26.37Q189.50-23.74 188.99-20.35L188.99-20.35L185.66 0L172.42 1.28L178.94-32.64L189.50-33.92L188.35-27.46L188.35-27.46Q191.49-33.92 198.53-33.92L198.53-33.92L198.53-33.92Q202.24-33.92 204.26-32L204.26-32L204.26-32Q206.27-30.08 206.27-26.14L206.27-26.14L206.27-26.14Q206.27-22.21 203.68-19.71L203.68-19.71L203.68-19.71Q201.09-17.22 196.67-17.22L196.67-17.22L196.67-17.22Q194.75-17.22 193.98-17.98ZM211.84-26.75L211.84-26.75L211.84-26.75Q214.02-29.82 217.31-31.87L217.31-31.87L217.31-31.87Q220.61-33.92 224.64-33.92L224.64-33.92L224.64-33.92Q228.67-33.92 230.59-32.64L230.59-32.64L243.14-33.92L238.78-9.34L238.78-9.34Q236.54 3.20 231.81 8.13L231.81 8.13L231.81 8.13Q227.26 12.80 218.43 12.80L218.43 12.80L218.43 12.80Q211.71 12.80 207.87 10.69L207.87 10.69L207.87 10.69Q204.03 8.58 204.03 5.06L204.03 5.06L204.03 5.06Q204.03 2.43 206.02 0.93L206.02 0.93L206.02 0.93Q208-0.58 211.07-0.58L211.07-0.58L211.07-0.58Q213.76-0.58 215.81 0.64L215.81 0.64L215.81 0.64Q217.02 1.28 217.60 2.18L217.60 2.18L217.60 2.18Q216.13 3.46 216.13 5.57L216.13 5.57L216.13 5.57Q216.13 8.32 218.69 8.32L218.69 8.32L218.69 8.32Q222.98 8.32 225.41-1.79L225.41-1.79L225.41-1.79Q226.11-4.54 226.69-7.30L226.69-7.30L226.69-7.30Q223.81-3.78 217.28-3.78L217.28-3.78L217.28-3.78Q212.74-3.78 210.11-5.95L210.11-5.95L210.11-5.95Q207.49-8.13 207.49-13.25L207.49-13.25L207.49-13.25Q207.49-16.45 208.58-20.06L208.58-20.06L208.58-20.06Q209.66-23.68 211.84-26.75ZM220.16-13.06L220.16-13.06L220.16-13.06Q220.16-8.70 222.40-8.70L222.40-8.70L222.40-8.70Q223.94-8.70 225.41-10.37L225.41-10.37L225.41-10.37Q226.56-11.71 227.01-13.70L227.01-13.70L230.27-30.14L230.27-30.14Q229.95-30.21 229.63-30.34L229.63-30.34L229.63-30.34Q228.99-30.59 228.16-30.59L228.16-30.59L228.16-30.59Q224.26-30.59 221.95-24.19L221.95-24.19L221.95-24.19Q220.16-19.20 220.16-13.06ZM259.58 1.28L259.58 1.28L259.58 1.28Q245.50 1.28 245.50-11.97L245.50-11.97L245.50-11.97Q245.50-21.38 250.69-27.46L250.69-27.46L250.69-27.46Q256.19-33.92 265.73-33.92L265.73-33.92L265.73-33.92Q272.64-33.92 276.16-30.72L276.16-30.72L276.16-30.72Q279.68-27.52 279.68-20.80L279.68-20.80L279.68-20.80Q279.68-10.56 274.18-4.61L274.18-4.61L274.18-4.61Q268.80 1.28 259.58 1.28ZM261.25-26.56L261.25-26.56L261.25-26.56Q260.48-24.83 259.87-22.24L259.87-22.24L259.87-22.24Q259.26-19.65 258.50-15.55L258.50-15.55L258.50-15.55Q257.73-11.46 257.73-6.40L257.73-6.40L257.73-6.40Q257.73-4.74 258.27-3.65L258.27-3.65L258.27-3.65Q258.82-2.56 260.29-2.56L260.29-2.56L260.29-2.56Q261.76-2.56 262.69-3.26L262.69-3.26L262.69-3.26Q263.62-3.97 264.32-5.63L264.32-5.63L264.32-5.63Q265.60-8.58 266.62-14.05L266.62-14.05L266.62-14.05Q267.65-19.52 267.74-21.89L267.74-21.89L267.74-21.89Q267.84-24.26 267.84-26.02L267.84-26.02L267.84-26.02Q267.84-27.78 267.33-28.93L267.33-28.93L267.33-28.93Q266.82-30.08 265.38-30.08L265.38-30.08L265.38-30.08Q263.94-30.08 262.98-29.18L262.98-29.18L262.98-29.18Q262.02-28.29 261.25-26.56ZM301.76-31.17L301.76-31.17L301.76-31.17Q299.58-32.83 299.58-36.38L299.58-36.38L299.58-36.38Q299.58-39.94 301.92-41.79L301.92-41.79L301.92-41.79Q304.26-43.65 308.29-43.65L308.29-43.65L308.29-43.65Q310.85-43.65 316.93-42.75L316.93-42.75L321.28-42.11L321.28-42.11Q323.46-41.86 325.73-41.86L325.73-41.86L325.73-41.86Q328-41.86 329.54-42.82L329.54-42.82L329.54-42.82Q331.84-40.77 331.84-37.82L331.84-37.82L331.84-37.82Q331.84-34.88 329.22-32.77L329.22-32.77L329.22-32.77Q326.53-30.53 323.07-30.53L323.07-30.53L323.07-30.53Q321.41-30.53 318.72-30.98L318.72-30.98L318.72-30.98Q315.58-21.12 315.58-14.27L315.58-14.27L315.58-14.27Q315.58-7.42 319.04-3.84L319.04-3.84L319.04-3.84Q317.44-0.96 315.07 0.16L315.07 0.16L315.07 0.16Q312.70 1.28 309.15 1.28L309.15 1.28L309.15 1.28Q305.60 1.28 303.39-0.67L303.39-0.67L303.39-0.67Q301.18-2.62 301.18-6.66L301.18-6.66L301.18-6.66Q301.18-11.33 303.74-19.01L303.74-19.01L303.74-19.01Q306.30-26.62 310.14-32.45L310.14-32.45L310.14-32.45Q308.29-32.64 306.37-32.64L306.37-32.64L306.37-32.64Q302.40-32.64 301.76-31.17ZM349.44-17.98L349.44-17.98L349.44-17.98Q351.74-22.08 351.74-26.24L351.74-26.24L351.74-26.24Q351.74-28.99 349.76-28.99L349.76-28.99L349.76-28.99Q348.22-28.99 346.62-26.37L346.62-26.37L346.62-26.37Q344.96-23.74 344.45-20.35L344.45-20.35L341.12 0L327.87 1.28L334.40-32.64L344.96-33.92L343.81-27.46L343.81-27.46Q346.94-33.92 353.98-33.92L353.98-33.92L353.98-33.92Q357.70-33.92 359.71-32L359.71-32L359.71-32Q361.73-30.08 361.73-26.14L361.73-26.14L361.73-26.14Q361.73-22.21 359.14-19.71L359.14-19.71L359.14-19.71Q356.54-17.22 352.13-17.22L352.13-17.22L352.13-17.22Q350.21-17.22 349.44-17.98ZM365.54-1.92L365.54-1.92L365.54-1.92Q364.03-3.58 363.36-6.21L363.36-6.21L363.36-6.21Q362.69-8.83 362.69-13.12L362.69-13.12L362.69-13.12Q362.69-17.41 364.16-21.31L364.16-21.31L364.16-21.31Q365.63-25.22 368.32-28.03L368.32-28.03L368.32-28.03Q373.82-33.92 382.91-33.92L382.91-33.92L382.91-33.92Q386.18-33.92 388.54-32.83L388.54-32.83L399.49-33.92L394.75-8.96L394.75-8.96Q394.56-8.19 394.56-6.78L394.56-6.78L394.56-6.78Q394.56-5.38 395.42-4.48L395.42-4.48L395.42-4.48Q396.29-3.58 397.57-3.46L397.57-3.46L397.57-3.46Q396.93-1.28 394.59 0L394.59 0L394.59 0Q392.26 1.28 389.63 1.28L389.63 1.28L389.63 1.28Q387.01 1.28 385.25 0.29L385.25 0.29L385.25 0.29Q383.49-0.70 382.98-2.37L382.98-2.37L382.98-2.37Q381.95-0.77 379.78 0.26L379.78 0.26L379.78 0.26Q377.60 1.28 374.69 1.28L374.69 1.28L374.69 1.28Q371.78 1.28 369.41 0.51L369.41 0.51L369.41 0.51Q367.04-0.26 365.54-1.92ZM379.04-27.90L379.04-27.90L379.04-27.90Q378.30-26.75 377.66-24.80L377.66-24.80L377.66-24.80Q377.02-22.85 375.97-17.63L375.97-17.63L375.97-17.63Q374.91-12.42 374.91-8.70L374.91-8.70L374.91-8.70Q374.91-4.99 375.49-3.90L375.49-3.90L375.49-3.90Q376.06-2.82 377.09-2.82L377.09-2.82L377.09-2.82Q379.14-2.82 380.64-4.77L380.64-4.77L380.64-4.77Q382.14-6.72 382.72-10.18L382.72-10.18L386.11-28.93L386.11-28.93Q384.77-30.08 383.20-30.08L383.20-30.08L383.20-30.08Q381.63-30.08 380.70-29.57L380.70-29.57L380.70-29.57Q379.78-29.06 379.04-27.90ZM434.11-26.62L434.11-26.62L434.11-26.62Q434.11-23.94 431.87-22.27L431.87-22.27L431.87-22.27Q429.63-20.61 425.98-20.61L425.98-20.61L425.98-20.61Q424.45-20.61 423.55-21.06L423.55-21.06L423.55-21.06Q424.26-22.72 424.48-24.80L424.48-24.80L424.48-24.80Q424.70-26.88 424.70-27.46L424.70-27.46L424.70-27.46Q424.70-30.14 422.85-30.14L422.85-30.14L422.85-30.14Q421.57-30.14 420.13-28.54L420.13-28.54L420.13-28.54Q418.69-26.94 417.47-24.45L417.47-24.45L417.47-24.45Q414.78-18.69 414.78-12.86L414.78-12.86L414.78-12.86Q414.78-9.66 416-8.22L416-8.22L416-8.22Q417.22-6.78 419.90-6.78L419.90-6.78L419.90-6.78Q423.62-6.78 426.56-9.86L426.56-9.86L426.56-9.86Q427.39-10.82 427.84-11.90L427.84-11.90L427.84-11.90Q430.27-10.62 430.27-7.10L430.27-7.10L430.27-7.10Q430.27-3.52 426.30-1.15L426.30-1.15L426.30-1.15Q422.21 1.28 415.68 1.28L415.68 1.28L415.68 1.28Q402.69 1.28 402.69-12.48L402.69-12.48L402.69-12.48Q402.69-22.53 408.38-28.29L408.38-28.29L408.38-28.29Q413.89-33.92 424-33.92L424-33.92L424-33.92Q434.11-33.92 434.11-26.62ZM452.35-30.34L452.35-30.34L452.35-30.34Q455.81-33.92 463.10-33.92L463.10-33.92L463.10-33.92Q467.14-33.92 469.34-31.78L469.34-31.78L469.34-31.78Q471.55-29.63 471.55-25.70L471.55-25.70L471.55-25.70Q471.55-21.76 469.34-18.98L469.34-18.98L469.34-18.98Q467.14-16.19 463.04-15.04L463.04-15.04L463.04-15.04Q463.36-13.76 463.81-12.42L463.81-12.42L464.70-9.86L464.70-9.86Q465.92-6.59 466.88-5.44L466.88-5.44L466.88-5.44Q467.84-4.29 469.12-3.90L469.12-3.90L469.12-3.90Q468.42-1.28 465.86 0.13L465.86 0.13L465.86 0.13Q463.81 1.28 460.99 1.28L460.99 1.28L460.99 1.28Q452.74 1.28 451.65-11.46L451.65-11.46L451.65-11.46Q451.46-13.25 451.46-15.04L451.46-15.04L451.46-15.04Q454.66-15.94 456.90-18.94L456.90-18.94L456.90-18.94Q459.14-21.95 459.14-25.47L459.14-25.47L459.14-25.47Q459.14-28.99 456.64-28.99L456.64-28.99L456.64-28.99Q454.85-28.99 453.44-27.01L453.44-27.01L453.44-27.01Q452.03-25.02 451.39-21.63L451.39-21.63L447.17 0L434.24 1.28L443.20-44.80L456.06-46.08L454.59-38.46L454.59-38.46Q453.63-33.09 452.35-30.34ZM489.86-3.52L489.86-3.52L489.86-3.52Q487.87 1.28 481.54 1.28L481.54 1.28L481.54 1.28Q478.27 1.28 476.22-0.96L476.22-0.96L476.22-0.96Q474.50-2.94 474.50-4.93L474.50-4.93L474.50-4.93Q474.50-10.11 476.86-20.22L476.86-20.22L479.23-32.64L492.22-33.92L488.32-13.70L488.32-13.70Q487.23-8.96 487.23-7.30L487.23-7.30L487.23-7.30Q487.23-3.65 489.86-3.52ZM480.38-41.54L480.38-41.54L480.38-41.54Q480.38-44.03 482.46-45.38L482.46-45.38L482.46-45.38Q484.54-46.72 487.55-46.72L487.55-46.72L487.55-46.72Q490.56-46.72 492.38-45.38L492.38-45.38L492.38-45.38Q494.21-44.03 494.21-41.54L494.21-41.54L494.21-41.54Q494.21-39.04 492.19-37.76L492.19-37.76L492.19-37.76Q490.18-36.48 487.17-36.48L487.17-36.48L487.17-36.48Q484.16-36.48 482.27-37.76L482.27-37.76L482.27-37.76Q480.38-39.04 480.38-41.54ZM522.37 1.28L522.37 1.28L522.37 1.28Q514.62 1.28 514.62-4.74L514.62-4.74L514.62-4.74Q514.69-6.40 515.20-9.22L515.20-9.22L516.35-15.10L516.35-15.10Q518.08-23.42 518.08-25.28L518.08-25.28L518.08-25.28Q518.08-28.99 515.90-28.99L515.90-28.99L515.90-28.99Q512.26-28.99 510.34-19.46L510.34-19.46L506.56 0L493.70 1.28L500.35-32.70L510.85-33.92L509.82-27.65L509.82-27.65Q512.83-33.92 522.05-33.92L522.05-33.92L522.05-33.92Q526.53-33.92 528.42-32.03L528.42-32.03L528.42-32.03Q530.30-30.14 530.30-25.92L530.30-25.92L530.30-25.92Q530.30-21.95 528.26-12.67L528.26-12.67L528.26-12.67Q527.30-8.51 527.30-6.94L527.30-6.94L527.30-6.94Q527.30-5.38 528.16-4.48L528.16-4.48L528.16-4.48Q529.02-3.58 530.30-3.46L530.30-3.46L530.30-3.46Q529.66-1.28 527.46 0L527.46 0L527.46 0Q525.25 1.28 522.37 1.28ZM539.97-26.75L539.97-26.75L539.97-26.75Q542.14-29.82 545.44-31.87L545.44-31.87L545.44-31.87Q548.74-33.92 552.77-33.92L552.77-33.92L552.77-33.92Q556.80-33.92 558.72-32.64L558.72-32.64L571.26-33.92L566.91-9.34L566.91-9.34Q564.67 3.20 559.94 8.13L559.94 8.13L559.94 8.13Q555.39 12.80 546.56 12.80L546.56 12.80L546.56 12.80Q539.84 12.80 536 10.69L536 10.69L536 10.69Q532.16 8.58 532.16 5.06L532.16 5.06L532.16 5.06Q532.16 2.43 534.14 0.93L534.14 0.93L534.14 0.93Q536.13-0.58 539.20-0.58L539.20-0.58L539.20-0.58Q541.89-0.58 543.94 0.64L543.94 0.64L543.94 0.64Q545.15 1.28 545.73 2.18L545.73 2.18L545.73 2.18Q544.26 3.46 544.26 5.57L544.26 5.57L544.26 5.57Q544.26 8.32 546.82 8.32L546.82 8.32L546.82 8.32Q551.10 8.32 553.54-1.79L553.54-1.79L553.54-1.79Q554.24-4.54 554.82-7.30L554.82-7.30L554.82-7.30Q551.94-3.78 545.41-3.78L545.41-3.78L545.41-3.78Q540.86-3.78 538.24-5.95L538.24-5.95L538.24-5.95Q535.62-8.13 535.62-13.25L535.62-13.25L535.62-13.25Q535.62-16.45 536.70-20.06L536.70-20.06L536.70-20.06Q537.79-23.68 539.97-26.75ZM548.29-13.06L548.29-13.06L548.29-13.06Q548.29-8.70 550.53-8.70L550.53-8.70L550.53-8.70Q552.06-8.70 553.54-10.37L553.54-10.37L553.54-10.37Q554.69-11.71 555.14-13.70L555.14-13.70L558.40-30.14L558.40-30.14Q558.08-30.21 557.76-30.34L557.76-30.34L557.76-30.34Q557.12-30.59 556.29-30.59L556.29-30.59L556.29-30.59Q552.38-30.59 550.08-24.19L550.08-24.19L550.08-24.19Q548.29-19.20 548.29-13.06ZM592.38 0L585.02 0L596.61-42.24L609.98-42.24L612.93-18.11L624.83-42.24L636.03-42.24L637.18-10.62L637.18-10.62Q637.44-4.35 640.51-2.43L640.51-2.43L640.51-2.43Q639.81-1.15 637.76 0.06L637.76 0.06L637.76 0.06Q635.71 1.28 632.99 1.28L632.99 1.28L632.99 1.28Q630.27 1.28 628.67 0.51L628.67 0.51L628.67 0.51Q627.07-0.26 626.18-1.54L626.18-1.54L626.18-1.54Q624.58-3.84 624.58-8.26L624.58-8.26L624.58-28.03L611.97 0L604.03 0L599.55-28.74L592.38 0ZM669.18-10.82L669.18-10.82L669.18-10.82Q670.78-9.73 670.78-7.33L670.78-7.33L670.78-7.33Q670.78-4.93 669.57-3.39L669.57-3.39L669.57-3.39Q668.35-1.86 666.37-0.83L666.37-0.83L666.37-0.83Q662.27 1.28 657.86 1.28L657.86 1.28L657.86 1.28Q653.44 1.28 650.85 0.32L650.85 0.32L650.85 0.32Q648.26-0.64 646.53-2.43L646.53-2.43L646.53-2.43Q643.14-5.82 643.14-12.03L643.14-12.03L643.14-12.03Q643.14-21.70 648.38-27.58L648.38-27.58L648.38-27.58Q654.02-33.92 663.81-33.92L663.81-33.92L663.81-33.92Q669.89-33.92 672.90-31.36L672.90-31.36L672.90-31.36Q675.14-29.44 675.14-26.30L675.14-26.30L675.14-26.30Q675.14-15.04 655.68-15.04L655.68-15.04L655.68-15.04Q655.42-13.38 655.42-11.97L655.42-11.97L655.42-11.97Q655.42-9.02 656.74-7.90L656.74-7.90L656.74-7.90Q658.05-6.78 660.48-6.78L660.48-6.78L660.48-6.78Q662.91-6.78 665.50-7.90L665.50-7.90L665.50-7.90Q668.10-9.02 669.18-10.82ZM656.13-17.79L656.13-17.79L656.13-17.79Q660.67-17.79 663.30-20.61L663.30-20.61L663.30-20.61Q665.92-23.30 665.92-27.58L665.92-27.58L665.92-27.58Q665.92-29.06 665.38-29.86L665.38-29.86L665.38-29.86Q664.83-30.66 663.74-30.66L663.74-30.66L663.74-30.66Q662.66-30.66 661.73-30.24L661.73-30.24L661.73-30.24Q660.80-29.82 659.84-28.42L659.84-28.42L659.84-28.42Q657.47-25.22 656.13-17.79ZM678.34-6.40L678.34-6.40L678.34-6.40Q678.34-8.13 679.23-12.48L679.23-12.48L682.62-29.76L678.85-29.76L679.10-31.68L679.10-31.68Q686.78-33.98 694.21-39.62L694.21-39.62L697.28-39.62L695.74-32.64L700.74-32.64L700.16-29.76L695.23-29.76L691.97-12.48L691.97-12.48Q691.14-8.51 691.14-7.17L691.14-7.17L691.14-7.17Q691.14-4.10 693.82-3.46L693.82-3.46L693.82-3.46Q693.18-1.28 690.88 0L690.88 0L690.88 0Q688.58 1.28 685.31 1.28L685.31 1.28L685.31 1.28Q682.05 1.28 680.19-0.77L680.19-0.77L680.19-0.77Q678.34-2.82 678.34-6.40ZM720.45-17.98L720.45-17.98L720.45-17.98Q722.75-22.08 722.75-26.24L722.75-26.24L722.75-26.24Q722.75-28.99 720.77-28.99L720.77-28.99L720.77-28.99Q719.23-28.99 717.63-26.37L717.63-26.37L717.63-26.37Q715.97-23.74 715.46-20.35L715.46-20.35L712.13 0L698.88 1.28L705.41-32.64L715.97-33.92L714.82-27.46L714.82-27.46Q717.95-33.92 724.99-33.92L724.99-33.92L724.99-33.92Q728.70-33.92 730.72-32L730.72-32L730.72-32Q732.74-30.08 732.74-26.14L732.74-26.14L732.74-26.14Q732.74-22.21 730.14-19.71L730.14-19.71L730.14-19.71Q727.55-17.22 723.14-17.22L723.14-17.22L723.14-17.22Q721.22-17.22 720.45-17.98ZM749.12-3.52L749.12-3.52L749.12-3.52Q747.14 1.28 740.80 1.28L740.80 1.28L740.80 1.28Q737.54 1.28 735.49-0.96L735.49-0.96L735.49-0.96Q733.76-2.94 733.76-4.93L733.76-4.93L733.76-4.93Q733.76-10.11 736.13-20.22L736.13-20.22L738.50-32.64L751.49-33.92L747.58-13.70L747.58-13.70Q746.50-8.96 746.50-7.30L746.50-7.30L746.50-7.30Q746.50-3.65 749.12-3.52ZM739.65-41.54L739.65-41.54L739.65-41.54Q739.65-44.03 741.73-45.38L741.73-45.38L741.73-45.38Q743.81-46.72 746.82-46.72L746.82-46.72L746.82-46.72Q749.82-46.72 751.65-45.38L751.65-45.38L751.65-45.38Q753.47-44.03 753.47-41.54L753.47-41.54L753.47-41.54Q753.47-39.04 751.46-37.76L751.46-37.76L751.46-37.76Q749.44-36.48 746.43-36.48L746.43-36.48L746.43-36.48Q743.42-36.48 741.54-37.76L741.54-37.76L741.54-37.76Q739.65-39.04 739.65-41.54ZM785.98-26.62L785.98-26.62L785.98-26.62Q785.98-23.94 783.74-22.27L783.74-22.27L783.74-22.27Q781.50-20.61 777.86-20.61L777.86-20.61L777.86-20.61Q776.32-20.61 775.42-21.06L775.42-21.06L775.42-21.06Q776.13-22.72 776.35-24.80L776.35-24.80L776.35-24.80Q776.58-26.88 776.58-27.46L776.58-27.46L776.58-27.46Q776.58-30.14 774.72-30.14L774.72-30.14L774.72-30.14Q773.44-30.14 772.00-28.54L772.00-28.54L772.00-28.54Q770.56-26.94 769.34-24.45L769.34-24.45L769.34-24.45Q766.66-18.69 766.66-12.86L766.66-12.86L766.66-12.86Q766.66-9.66 767.87-8.22L767.87-8.22L767.87-8.22Q769.09-6.78 771.78-6.78L771.78-6.78L771.78-6.78Q775.49-6.78 778.43-9.86L778.43-9.86L778.43-9.86Q779.26-10.82 779.71-11.90L779.71-11.90L779.71-11.90Q782.14-10.62 782.14-7.10L782.14-7.10L782.14-7.10Q782.14-3.52 778.18-1.15L778.18-1.15L778.18-1.15Q774.08 1.28 767.55 1.28L767.55 1.28L767.55 1.28Q754.56 1.28 754.56-12.48L754.56-12.48L754.56-12.48Q754.56-22.53 760.26-28.29L760.26-28.29L760.26-28.29Q765.76-33.92 775.87-33.92L775.87-33.92L775.87-33.92Q785.98-33.92 785.98-26.62ZM806.85-22.46L806.85-22.46L806.85-22.46Q807.74-24.83 807.74-26.88L807.74-26.88L807.74-26.88Q807.74-30.66 804.67-30.66L804.67-30.66L804.67-30.66Q803.07-30.66 801.76-29.22L801.76-29.22L801.76-29.22Q800.45-27.78 800.45-25.98L800.45-25.98L800.45-25.98Q800.45-24.70 801.47-23.68L801.47-23.68L801.47-23.68Q802.94-22.27 806.72-19.97L806.72-19.97L806.72-19.97Q810.50-17.66 811.94-15.78L811.94-15.78L811.94-15.78Q813.38-13.89 813.38-11.30L813.38-11.30L813.38-11.30Q813.38-8.70 812.13-6.34L812.13-6.34L812.13-6.34Q810.88-3.97 808.64-2.30L808.64-2.30L808.64-2.30Q803.84 1.28 796.16 1.28L796.16 1.28L796.16 1.28Q792.00 1.28 788.80-0.90L788.80-0.90L788.80-0.90Q785.60-3.01 785.60-5.50L785.60-5.50L785.60-5.50Q785.60-8 787.42-9.47L787.42-9.47L787.42-9.47Q789.25-10.94 791.94-10.94L791.94-10.94L791.94-10.94Q794.62-10.94 796.29-9.92L796.29-9.92L796.29-9.92Q795.46-7.81 795.46-6.40L795.46-6.40L795.46-6.40Q795.46-2.18 799.04-2.18L799.04-2.18L799.04-2.18Q800.58-2.18 801.60-3.14L801.60-3.14L801.60-3.14Q802.62-4.10 802.62-5.76L802.62-5.76L802.62-5.76Q802.62-9.02 797.12-12.48L797.12-12.48L797.12-12.48Q792.64-15.42 791.62-16.58L791.62-16.58L791.62-16.58Q789.89-18.62 789.89-21.18L789.89-21.18L789.89-21.18Q789.89-23.74 791.10-26.18L791.10-26.18L791.10-26.18Q792.32-28.61 794.56-30.34L794.56-30.34L794.56-30.34Q799.23-33.92 807.36-33.92L807.36-33.92L807.36-33.92Q811.52-33.92 813.98-32.26L813.98-32.26L813.98-32.26Q816.45-30.59 816.45-27.78L816.45-27.78L816.45-27.78Q816.45-24.96 814.75-23.36L814.75-23.36L814.75-23.36Q813.06-21.76 809.98-21.76L809.98-21.76L809.98-21.76Q807.87-21.76 806.85-22.46Z" fill="#ffd5af"></path></g></g><style>text {
  font-size: 64px;
  font-family: Arial Black;
  dominant-baseline: central;
  text-anchor: middle;
}</style></svg>